<svg width="28" height="28" viewBox="0 0 28 28" fill="none" xmlns="http://www.w3.org/2000/svg">
<path opacity="0.8" fill-rule="evenodd" clip-rule="evenodd" d="M10 4.39801C13.314 4.39801 14.906 13 18 13C21.094 13 21.69 16 25 16V19C25 20.5913 24.3679 22.1174 23.2426 23.2427C22.1174 24.3679 20.5913 25 19 25H9C7.4087 25 5.88258 24.3679 4.75736 23.2427C3.63214 22.1174 3 20.5913 3 19V17C5.525 17 6.686 4.39801 10 4.39801Z" fill="#F74D71"/>
<path opacity="0.8" fill-rule="evenodd" clip-rule="evenodd" d="M10 19.398C13.314 19.398 14.906 16 18 16C21.094 16 21.69 9 25 9V19C25 20.5913 24.3679 22.1174 23.2426 23.2426C22.1174 24.3679 20.5913 25 19 25H9C7.4087 25 5.88258 24.3679 4.75736 23.2426C3.63214 22.1174 3 20.5913 3 19V12C5.525 12 6.686 19.398 10 19.398Z" fill="#39246D"/>
</svg>
