<svg width="28" height="28" viewBox="0 0 28 28" fill="none" xmlns="http://www.w3.org/2000/svg">
<path d="M2.978 16.567C6.284 16.567 5.863 20.721 10.34 20.721C14.816 20.721 12.56 7.311 17.945 7.311C23.329 7.311 20.848 18.208 24.969 18.208" stroke="#39246D"/>
<path d="M2.978 21.567C6.855 21.567 6.228 9.72101 10.34 9.72101C14.451 9.72101 13.916 16.311 17.945 16.311C21.973 16.311 20.848 8.20801 24.969 8.20801" stroke="#F74D71"/>
<path d="M24.5 10C25.3284 10 26 9.32843 26 8.5C26 7.67157 25.3284 7 24.5 7C23.6716 7 23 7.67157 23 8.5C23 9.32843 23.6716 10 24.5 10Z" fill="#F74D71"/>
<path d="M24.5 20C25.3284 20 26 19.3284 26 18.5C26 17.6716 25.3284 17 24.5 17C23.6716 17 23 17.6716 23 18.5C23 19.3284 23.6716 20 24.5 20Z" fill="#39246D"/>
</svg>
