<svg width="28" height="28" viewBox="0 0 28 28" fill="none" xmlns="http://www.w3.org/2000/svg">
<path fill-rule="evenodd" clip-rule="evenodd" d="M14 23C16.3869 23 18.6761 22.0518 20.364 20.364C22.0518 18.6761 23 16.3869 23 14C23 11.6131 22.0518 9.32387 20.364 7.63604C18.6761 5.94821 16.3869 5 14 5" fill="#39246D"/>
<path fill-rule="evenodd" clip-rule="evenodd" d="M14 23C11.6131 23 9.32387 22.0518 7.63604 20.364C5.94821 18.6761 5 16.3869 5 14C5 11.6131 5.94821 9.32387 7.63604 7.63604C9.32387 5.94821 11.6131 5 14 5" fill="#F48AB9"/>
<path fill-rule="evenodd" clip-rule="evenodd" d="M14 23C12.4819 23.0004 10.9883 22.6168 9.65828 21.8849C8.32826 21.1529 7.205 20.0964 6.39303 18.8137C5.58105 17.531 5.10675 16.0637 5.01425 14.5484C4.92175 13.0331 5.21407 11.519 5.864 10.147L14 14V23Z" fill="#F74D71"/>
</svg>
