<svg width="28" height="28" viewBox="0 0 28 28" fill="none" xmlns="http://www.w3.org/2000/svg">
<path d="M14 21C17.866 21 21 17.866 21 14C21 10.134 17.866 7 14 7C10.134 7 7 10.134 7 14C7 17.866 10.134 21 14 21Z" stroke="#ECECEC" stroke-width="4"/>
<path d="M9.05 18.95C9.8347 19.7349 10.7948 20.3219 11.851 20.6627C12.9072 21.0034 14.0294 21.0882 15.1248 20.9099C16.2202 20.7316 17.2576 20.2954 18.1512 19.6373C19.0449 18.9791 19.7693 18.118 20.2646 17.1248C20.7599 16.1316 21.0119 15.0348 20.9999 13.9251C20.9879 12.8153 20.7122 11.7242 20.1955 10.742C19.6788 9.75976 18.936 8.91445 18.0283 8.27582C17.1206 7.63719 16.074 7.22354 14.975 7.069" stroke="#F74D71" stroke-width="4" stroke-linecap="round"/>
</svg>
