<svg width="28" height="28" viewBox="0 0 28 28" fill="none" xmlns="http://www.w3.org/2000/svg">
<path d="M9 13C11.2091 13 13 11.2091 13 9C13 6.79086 11.2091 5 9 5C6.79086 5 5 6.79086 5 9C5 11.2091 6.79086 13 9 13Z" fill="#39246D"/>
<path d="M19 22C20.6569 22 22 20.6569 22 19C22 17.3431 20.6569 16 19 16C17.3431 16 16 17.3431 16 19C16 20.6569 17.3431 22 19 22Z" fill="#39246D"/>
<path d="M14.5 16C15.3284 16 16 15.3284 16 14.5C16 13.6716 15.3284 13 14.5 13C13.6716 13 13 13.6716 13 14.5C13 15.3284 13.6716 16 14.5 16Z" fill="#39246D"/>
<path d="M8.5 22C9.88071 22 11 20.8807 11 19.5C11 18.1193 9.88071 17 8.5 17C7.11929 17 6 18.1193 6 19.5C6 20.8807 7.11929 22 8.5 22Z" fill="#F74D71"/>
<path d="M20 12C21.6569 12 23 10.6569 23 9C23 7.34315 21.6569 6 20 6C18.3431 6 17 7.34315 17 9C17 10.6569 18.3431 12 20 12Z" fill="#F74D71"/>
</svg>
