<svg width="28" height="28" viewBox="0 0 28 28" fill="none" xmlns="http://www.w3.org/2000/svg">
<path d="M3.07201 9.14L4.90401 8.66L6.89101 9.634L7.89101 8.66L9.93501 7.885L10.682 9.14L13.174 8.194L14.234 6.967L16.706 6.314L18.596 7.531L20.309 6.967L21.936 6.314L24.542 6.61" stroke="#F74D71"/>
<path d="M24.5 8C25.3284 8 26 7.32843 26 6.5C26 5.67157 25.3284 5 24.5 5C23.6716 5 23 5.67157 23 6.5C23 7.32843 23.6716 8 24.5 8Z" fill="#F74D71"/>
<path d="M24.5 14C25.3284 14 26 13.3284 26 12.5C26 11.6716 25.3284 11 24.5 11C23.6716 11 23 11.6716 23 12.5C23 13.3284 23.6716 14 24.5 14Z" fill="#F74D71"/>
<path d="M24.5 22C25.3284 22 26 21.3284 26 20.5C26 19.6716 25.3284 19 24.5 19C23.6716 19 23 19.6716 23 20.5C23 21.3284 23.6716 22 24.5 22Z" fill="#F74D71"/>
<path d="M3.07201 14.14L4.90401 14.66L5.89101 14.634L7.89101 15.66L9.93501 14.885L10.682 14.14L13.174 14.194L14.234 15.967L16.706 12.314L18.596 11.531L20.309 12.967L21.926 13.749L24.556 12.574M3.07201 20.14L4.90401 18.66L6.89101 18.634L7.89101 19.66L9.93501 21.885L11.682 22.14L13.174 22.194L14.234 21.967L16.706 21.314L18.596 19.531L20.309 19.967L21.992 21.314L24.641 20.414" stroke="#F74D71"/>
</svg>
