<svg width="28" height="28" viewBox="0 0 28 28" fill="none" xmlns="http://www.w3.org/2000/svg">
<path fill-rule="evenodd" clip-rule="evenodd" d="M10 14.398C13.314 14.398 14.906 16 18 16C21.094 16 21.69 14 25 14V19C25 20.5913 24.3679 22.1174 23.2426 23.2426C22.1174 24.3679 20.5913 25 19 25H9C7.4087 25 5.88258 24.3679 4.75736 23.2426C3.63214 22.1174 3 20.5913 3 19V18C5.525 18 6.686 14.398 10 14.398Z" fill="#39246D"/>
<path fill-rule="evenodd" clip-rule="evenodd" d="M10 11.398C13.314 11.398 14.906 4 18 4C21.094 4 21.69 9 25 9V14C22.044 14 21.669 17 18 17C14.331 17 13.613 15 10 15C6.387 15 5.981 18 3 18V8C5.525 8 6.686 11.398 10 11.398Z" fill="#F74D71"/>
</svg>
