<svg width="28" height="28" viewBox="0 0 28 28" fill="none" xmlns="http://www.w3.org/2000/svg">
<path fill-rule="evenodd" clip-rule="evenodd" d="M3 9.47399C5.807 9.47399 7.16 6.29099 9.94 6.29099C12.72 6.29099 14.408 10.44 16.968 10.438C19.527 10.436 22.017 6.29099 25 6.29099V13.458C21.408 14.212 18.73 14.589 16.968 14.589C14.323 14.589 12.113 10.458 9.94 10.458C7.768 10.458 5.372 12.118 3 12.118V9.47298V9.47399Z" fill="#F74D71"/>
<path fill-rule="evenodd" clip-rule="evenodd" d="M3 21.474C5.807 21.474 7.16 16.291 9.94 16.291C12.72 16.291 14.408 23.44 16.968 23.438C19.527 23.436 22.017 15.291 25 15.291V13.458C21.408 14.212 18.73 14.589 16.968 14.589C14.323 14.589 12.113 10.458 9.94 10.458C7.768 10.458 5.372 12.118 3 12.118V21.474Z" fill="#39246D"/>
</svg>
